# xmcd
#
# Track frame offsets: 
#        150
#        22577
#        43057
#        57725
#        75842
#        92367
#        106777
#        125410
#        145562
#        163355
#        184120
#        206380
#        235207
#
# Disc length: 3370 seconds
#
# Revision: 3
# Processed by: cddbd v1.5.2PL0 Copyright (c) Steve Scherf et al.
# Submitted via: ExactAudioCopy v1.3
#
DISCID=9b0d280d
DTITLE=Various Artist - Blues Revue sampler April-May 2003
DYEAR=2003
DGENRE=Blues
TTITLE0=Michael Hill's Blues Mob - Something in the sky
TTITLE1=Nick Moss and The Flip Tops - When it rains it really pours
TTITLE2=Mickey Champion - My little boy blue
TTITLE3=Harry Manx and Kevin Breit - Diving duck blues
TTITLE4=Hi-Way 13 Blues Band - Taxi driver
TTITLE5=Nick Curran and The Nitelifes - Drivin' me crazy
TTITLE6=Luther Allison and Friends - I wanna be with you
TTITLE7=Big Jack Johnson and The Oilers - We gotta stop this killing
TTITLE8=Al Basile - Brand new fool
TTITLE9=Kay Kay and The Rays - Lone star justice
TTITLE10=Pete Thelen - Voodoo king
TTITLE11=Eddie Vaan Shaw Jr. - I've heard
TTITLE12=Governor Davis and The Blues Ambassadors - Blues thang
EXTD=
EXTT0=
EXTT1=
EXTT2=
EXTT3=
EXTT4=
EXTT5=
EXTT6=
EXTT7=
EXTT8=
EXTT9=
EXTT10=
EXTT11=
EXTT12=
PLAYORDER=
